<?xml version="1.0" standalone="no"?>
<!DOCTYPE svg PUBLIC "-//W3C//DTD SVG 20010904//EN"
 "http://www.w3.org/TR/2001/REC-SVG-20010904/DTD/svg10.dtd">
<svg version="1.0" xmlns="http://www.w3.org/2000/svg"
 width="1024.000000pt" height="1024.000000pt" viewBox="0 0 1024.000000 1024.000000"
 preserveAspectRatio="xMidYMid meet">
<metadata>
Created by potrace 1.11, written by Peter Selinger 2001-2013
</metadata>
<g transform="translate(0.000000,1024.000000) scale(0.100000,-0.100000)"
fill="#000000" stroke="none">
<path d="M0 5120 l0 -5120 5120 0 5120 0 0 5120 0 5120 -5120 0 -5120 0 0
-5120z m3205 2405 c163 -341 302 -628 307 -639 8 -14 7 -17 -3 -10 -10 6 -880
636 -898 651 -2 1 63 142 144 313 82 170 150 309 151 307 1 -1 136 -281 299
-622z m4283 316 c78 -164 142 -303 142 -307 -1 -11 -890 -658 -895 -652 -6 5
596 1258 604 1258 3 0 70 -135 149 -299z m-3682 -1326 c680 -495 1242 -904
1249 -910 10 -8 -4 -60 -60 -233 -40 -123 -75 -226 -78 -229 -5 -5 -1883 1356
-1934 1402 -12 11 -106 195 -208 409 -102 214 -195 407 -206 428 -11 22 -16
39 -10 37 6 -2 567 -409 1247 -904z m3866 867 c-9 -21 -102 -216 -207 -434
l-190 -396 -967 -703 c-532 -387 -971 -705 -975 -706 -5 -2 -42 98 -83 223
-71 220 -72 226 -54 243 10 10 541 398 1179 861 638 464 1192 867 1230 896 39
29 73 53 77 53 4 1 -1 -16 -10 -37z m-3689 -1712 l886 -645 -389 -3 -390 -2
-297 216 -298 217 -180 375 c-219 455 -237 494 -226 490 5 -2 407 -293 894
-648z m2971 213 l-207 -431 -297 -216 -298 -216 -389 2 -389 3 889 648 c490
356 892 646 894 644 1 -2 -90 -197 -203 -434z m-1708 -958 c95 -46 145 -130
145 -241 0 -211 -216 -338 -402 -238 -54 30 -104 88 -126 147 -20 56 -16 146
11 202 69 145 227 201 372 130z m-653 -270 c76 -54 136 -104 134 -110 -3 -5
-44 -131 -92 -280 -48 -148 -90 -273 -94 -277 -6 -7 -583 405 -589 422 -5 13
479 360 492 352 7 -4 74 -52 149 -107z m1460 -62 c133 -97 243 -177 245 -178
3 -3 -557 -412 -585 -429 -9 -5 -39 74 -104 274 -50 154 -89 286 -86 294 4 10
272 214 285 216 1 0 111 -79 245 -177z m-688 -500 c134 -98 242 -180 239 -184
-2 -4 -110 -84 -239 -179 -153 -112 -241 -170 -251 -166 -9 3 -121 83 -251
177 l-234 171 73 53 c40 29 150 109 243 178 94 69 171 126 173 126 2 1 113
-79 247 -176z m-2675 -1428 c24 -9 55 -26 69 -38 27 -25 55 -83 46 -97 -4 -6
-48 -10 -100 -10 -72 0 -94 3 -98 14 -3 8 -25 20 -47 26 -50 14 -123 -5 -128
-32 -5 -27 36 -46 158 -73 136 -30 177 -49 207 -94 62 -93 -5 -216 -137 -252
-59 -16 -244 -17 -296 -1 -80 24 -137 79 -146 142 -3 25 -3 25 90 28 90 3 93
2 116 -25 21 -24 32 -28 94 -31 61 -4 73 -1 91 17 25 25 25 31 8 55 -9 12 -50
25 -133 42 -192 39 -250 83 -241 185 7 81 67 137 170 159 59 13 224 4 277 -15z
m3875 -1 c122 -31 203 -125 212 -248 16 -199 -128 -326 -368 -326 -170 0 -279
53 -337 165 -21 41 -26 64 -26 125 0 169 104 279 283 300 81 9 157 4 236 -16z
m1597 -4 c31 -11 68 -30 82 -41 24 -19 72 -97 64 -104 -2 -2 -43 -10 -92 -20
-73 -13 -91 -14 -97 -3 -5 7 -9 16 -9 20 0 3 -21 16 -46 28 -35 17 -57 21 -95
18 -88 -9 -140 -65 -147 -156 -5 -71 22 -132 71 -162 67 -42 195 -15 228 47
11 20 18 23 48 19 20 -3 62 -8 94 -11 54 -6 57 -8 51 -28 -9 -32 -49 -83 -87
-111 -60 -45 -121 -60 -252 -60 -103 0 -128 3 -179 23 -147 59 -217 203 -171
357 30 102 113 173 235 201 78 18 232 9 302 -17z m-6722 -185 c3 -104 9 -198
14 -208 23 -47 138 -67 191 -33 47 31 55 68 55 261 l0 176 98 -3 97 -3 3 -160
c4 -248 -11 -310 -88 -363 -55 -37 -107 -47 -245 -47 -186 0 -259 28 -302 115
-22 42 -23 56 -23 252 l0 209 98 -3 97 -3 5 -190z m2511 -84 c66 -151 119
-276 119 -278 0 -2 -49 -3 -109 -3 l-108 0 -13 45 -13 45 -107 0 -107 0 -13
-45 -13 -45 -109 0 c-84 0 -109 3 -105 13 21 51 228 531 233 538 3 6 55 8 116
7 l111 -3 118 -274z m397 -3 l2 -278 -100 0 -100 0 0 280 0 281 98 -3 97 -3 3
-277z m601 273 c86 -10 117 -29 149 -91 42 -84 17 -182 -57 -220 -23 -11 -41
-24 -41 -28 0 -4 29 -52 64 -107 l63 -100 -106 -3 c-122 -3 -107 -12 -177 116
l-46 82 -54 0 -54 0 0 -100 0 -100 -100 0 -100 0 0 273 c0 151 3 277 7 280 9
10 364 8 452 -2z m1019 -58 l3 -63 -171 0 -170 0 0 -55 0 -55 155 0 155 0 0
-60 0 -60 -155 0 -155 0 0 -100 0 -100 -100 0 -100 0 0 280 0 280 268 -2 267
-3 3 -62z m1455 42 c58 -27 92 -85 92 -154 -1 -71 -26 -115 -82 -142 l-42 -20
70 -110 69 -110 -112 3 -112 3 -56 97 -55 98 -52 0 -53 0 0 -100 0 -100 -100
0 -100 0 0 281 0 282 248 -5 c213 -4 252 -7 285 -23z m1567 -40 l0 -65 -190 0
-190 0 0 -45 0 -45 175 0 175 0 0 -65 0 -65 -175 0 -175 0 0 -40 0 -40 195 0
195 0 0 -65 0 -65 -295 0 -295 0 0 280 0 280 290 0 290 0 0 -65z m-6860 -425
l0 -70 -90 0 -90 0 0 70 0 70 90 0 90 0 0 -70z m940 0 l0 -70 -95 0 -95 0 0
70 0 70 95 0 95 0 0 -70z"/>
<path d="M6330 2542 c-53 -30 -82 -92 -78 -169 4 -71 25 -106 79 -138 44 -26
124 -26 168 0 94 55 99 233 9 299 -40 29 -132 33 -178 8z"/>
<path d="M3713 2480 c-30 -75 -53 -142 -53 -150 0 -6 27 -10 60 -10 33 0 60 4
60 8 0 4 -13 46 -29 92 -26 77 -30 83 -38 60z"/>
<path d="M4690 2490 l0 -50 99 0 c105 0 131 10 131 50 0 36 -38 50 -137 50
l-93 0 0 -50z"/>
<path d="M7090 2490 l0 -50 99 0 c105 0 131 10 131 50 0 36 -38 50 -137 50
l-93 0 0 -50z"/>
</g>
</svg>
